<mxfile host="www.draw.io" modified="2019-11-15T18:44:29.286Z" agent="Mozilla/5.0 (Windows NT 10.0; Win64; x64) AppleWebKit/537.36 (KHTML, like Gecko) Chrome/78.0.3904.97 Safari/537.36" etag="3iBfw_A1plkloGjZe8y2" version="12.2.6" type="github" pages="1">
  <diagram id="4uRVFsyQm0KmxqMWwmNr" name="Page-1">
    <mxGraphModel dx="768" dy="461" grid="1" gridSize="10" guides="1" tooltips="1" connect="1" arrows="1" fold="1" page="1" pageScale="1" pageWidth="827" pageHeight="1169" math="0" shadow="0">
      <root>
        <mxCell id="0"/>
        <mxCell id="N2LqG0-nj7z7RjuAbN2V-1" value="region network" parent="0"/>
        <mxCell id="8aeaqcqeNkye2ldPFs5D-2" value="Region : Ireland (eu-west-1)" style="points=[[0,0],[0.25,0],[0.5,0],[0.75,0],[1,0],[1,0.25],[1,0.5],[1,0.75],[1,1],[0.75,1],[0.5,1],[0.25,1],[0,1],[0,0.75],[0,0.5],[0,0.25]];outlineConnect=0;gradientColor=none;html=1;whiteSpace=wrap;fontSize=12;fontStyle=0;shape=mxgraph.aws4.group;grIcon=mxgraph.aws4.group_region;strokeColor=#147EBA;fillColor=none;verticalAlign=top;align=left;spacingLeft=30;fontColor=#147EBA;dashed=0;" parent="N2LqG0-nj7z7RjuAbN2V-1" vertex="1">
          <mxGeometry x="84" y="250" width="710" height="750" as="geometry"/>
        </mxCell>
        <mxCell id="8aeaqcqeNkye2ldPFs5D-1" value="AWS Cloud" style="points=[[0,0],[0.25,0],[0.5,0],[0.75,0],[1,0],[1,0.25],[1,0.5],[1,0.75],[1,1],[0.75,1],[0.5,1],[0.25,1],[0,1],[0,0.75],[0,0.5],[0,0.25]];outlineConnect=0;gradientColor=none;html=1;whiteSpace=wrap;fontSize=12;fontStyle=0;shape=mxgraph.aws4.group;grIcon=mxgraph.aws4.group_aws_cloud;strokeColor=#232F3E;fillColor=none;verticalAlign=top;align=left;spacingLeft=30;fontColor=#232F3E;dashed=0;" parent="N2LqG0-nj7z7RjuAbN2V-1" vertex="1">
          <mxGeometry x="76" y="20" width="740" height="1010" as="geometry"/>
        </mxCell>
        <mxCell id="0vmh4POg4geOitYVOq-g-14" value="" style="group" parent="N2LqG0-nj7z7RjuAbN2V-1" vertex="1" connectable="0">
          <mxGeometry x="383" y="1083" width="217" height="20" as="geometry"/>
        </mxCell>
        <mxCell id="1" value="vpc network" parent="0"/>
        <mxCell id="8aeaqcqeNkye2ldPFs5D-8" value="VPC sesc" style="points=[[0,0],[0.25,0],[0.5,0],[0.75,0],[1,0],[1,0.25],[1,0.5],[1,0.75],[1,1],[0.75,1],[0.5,1],[0.25,1],[0,1],[0,0.75],[0,0.5],[0,0.25]];outlineConnect=0;gradientColor=none;html=1;whiteSpace=wrap;fontSize=12;fontStyle=0;shape=mxgraph.aws4.group;grIcon=mxgraph.aws4.group_vpc;strokeColor=#248814;fillColor=none;verticalAlign=top;align=left;spacingLeft=30;fontColor=#AAB7B8;dashed=0;" parent="1" vertex="1">
          <mxGeometry x="94" y="300" width="690" height="680" as="geometry"/>
        </mxCell>
        <mxCell id="N2LqG0-nj7z7RjuAbN2V-2" value="network view" parent="0" visible="0"/>
        <mxCell id="8aeaqcqeNkye2ldPFs5D-28" value="" style="group" parent="N2LqG0-nj7z7RjuAbN2V-2" vertex="1" connectable="0">
          <mxGeometry x="180" y="330" width="588" height="490" as="geometry"/>
        </mxCell>
        <mxCell id="8aeaqcqeNkye2ldPFs5D-5" value="Availability Zone 1a" style="fillColor=none;strokeColor=#147EBA;dashed=1;verticalAlign=top;fontStyle=0;fontColor=#147EBA;" parent="8aeaqcqeNkye2ldPFs5D-28" vertex="1">
          <mxGeometry width="588" height="140" as="geometry"/>
        </mxCell>
        <mxCell id="8aeaqcqeNkye2ldPFs5D-10" value="Availability Zone 1b" style="fillColor=none;strokeColor=#147EBA;dashed=1;verticalAlign=top;fontStyle=0;fontColor=#147EBA;" parent="8aeaqcqeNkye2ldPFs5D-28" vertex="1">
          <mxGeometry y="180" width="588" height="140" as="geometry"/>
        </mxCell>
        <mxCell id="8aeaqcqeNkye2ldPFs5D-11" value="Availability Zone 1c" style="fillColor=none;strokeColor=#147EBA;dashed=1;verticalAlign=top;fontStyle=0;fontColor=#147EBA;" parent="8aeaqcqeNkye2ldPFs5D-28" vertex="1">
          <mxGeometry y="350" width="588" height="140" as="geometry"/>
        </mxCell>
        <mxCell id="8aeaqcqeNkye2ldPFs5D-12" value="Public subnet 1a&amp;nbsp;&lt;br&gt;&lt;br&gt;10.133.64.0/26" style="points=[[0,0],[0.25,0],[0.5,0],[0.75,0],[1,0],[1,0.25],[1,0.5],[1,0.75],[1,1],[0.75,1],[0.5,1],[0.25,1],[0,1],[0,0.75],[0,0.5],[0,0.25]];outlineConnect=0;gradientColor=none;html=1;whiteSpace=wrap;fontSize=12;fontStyle=0;shape=mxgraph.aws4.group;grIcon=mxgraph.aws4.group_security_group;grStroke=0;strokeColor=#248814;fillColor=#E9F3E6;verticalAlign=top;align=left;spacingLeft=30;fontColor=#248814;dashed=0;" parent="8aeaqcqeNkye2ldPFs5D-28" vertex="1">
          <mxGeometry x="18.666666666666664" y="13" width="214.66666666666666" height="115" as="geometry"/>
        </mxCell>
        <mxCell id="8aeaqcqeNkye2ldPFs5D-13" value="Public subnet 1b&lt;br&gt;&lt;br&gt;10.133.64.64/26" style="points=[[0,0],[0.25,0],[0.5,0],[0.75,0],[1,0],[1,0.25],[1,0.5],[1,0.75],[1,1],[0.75,1],[0.5,1],[0.25,1],[0,1],[0,0.75],[0,0.5],[0,0.25]];outlineConnect=0;gradientColor=none;html=1;whiteSpace=wrap;fontSize=12;fontStyle=0;shape=mxgraph.aws4.group;grIcon=mxgraph.aws4.group_security_group;grStroke=0;strokeColor=#248814;fillColor=#E9F3E6;verticalAlign=top;align=left;spacingLeft=30;fontColor=#248814;dashed=0;" parent="8aeaqcqeNkye2ldPFs5D-28" vertex="1">
          <mxGeometry x="18.666666666666664" y="193" width="214.66666666666666" height="115" as="geometry"/>
        </mxCell>
        <mxCell id="8aeaqcqeNkye2ldPFs5D-14" value="Public subnet 1c&lt;br&gt;&lt;br&gt;10.133.64.128/26" style="points=[[0,0],[0.25,0],[0.5,0],[0.75,0],[1,0],[1,0.25],[1,0.5],[1,0.75],[1,1],[0.75,1],[0.5,1],[0.25,1],[0,1],[0,0.75],[0,0.5],[0,0.25]];outlineConnect=0;gradientColor=none;html=1;whiteSpace=wrap;fontSize=12;fontStyle=0;shape=mxgraph.aws4.group;grIcon=mxgraph.aws4.group_security_group;grStroke=0;strokeColor=#248814;fillColor=#E9F3E6;verticalAlign=top;align=left;spacingLeft=30;fontColor=#248814;dashed=0;" parent="8aeaqcqeNkye2ldPFs5D-28" vertex="1">
          <mxGeometry x="18.666666666666664" y="363" width="214.66666666666666" height="115" as="geometry"/>
        </mxCell>
        <mxCell id="8aeaqcqeNkye2ldPFs5D-15" value="Private subnet 1a&lt;br&gt;&lt;br&gt;10.133.65.0/26&lt;br&gt;" style="points=[[0,0],[0.25,0],[0.5,0],[0.75,0],[1,0],[1,0.25],[1,0.5],[1,0.75],[1,1],[0.75,1],[0.5,1],[0.25,1],[0,1],[0,0.75],[0,0.5],[0,0.25]];outlineConnect=0;gradientColor=none;html=1;whiteSpace=wrap;fontSize=12;fontStyle=0;shape=mxgraph.aws4.group;grIcon=mxgraph.aws4.group_security_group;grStroke=0;strokeColor=#147EBA;fillColor=#E6F2F8;verticalAlign=top;align=left;spacingLeft=30;fontColor=#147EBA;dashed=0;" parent="8aeaqcqeNkye2ldPFs5D-28" vertex="1">
          <mxGeometry x="354.66666666666663" y="13" width="224" height="118" as="geometry"/>
        </mxCell>
        <mxCell id="8aeaqcqeNkye2ldPFs5D-16" value="Private subnet 1c&lt;br&gt;&lt;br&gt;10.133.65.128/26" style="points=[[0,0],[0.25,0],[0.5,0],[0.75,0],[1,0],[1,0.25],[1,0.5],[1,0.75],[1,1],[0.75,1],[0.5,1],[0.25,1],[0,1],[0,0.75],[0,0.5],[0,0.25]];outlineConnect=0;gradientColor=none;html=1;whiteSpace=wrap;fontSize=12;fontStyle=0;shape=mxgraph.aws4.group;grIcon=mxgraph.aws4.group_security_group;grStroke=0;strokeColor=#147EBA;fillColor=#E6F2F8;verticalAlign=top;align=left;spacingLeft=30;fontColor=#147EBA;dashed=0;" parent="8aeaqcqeNkye2ldPFs5D-28" vertex="1">
          <mxGeometry x="354.66666666666663" y="363" width="224" height="118" as="geometry"/>
        </mxCell>
        <mxCell id="8aeaqcqeNkye2ldPFs5D-17" value="Private subnet 1b&lt;br&gt;&lt;br&gt;10.133.65.64/26" style="points=[[0,0],[0.25,0],[0.5,0],[0.75,0],[1,0],[1,0.25],[1,0.5],[1,0.75],[1,1],[0.75,1],[0.5,1],[0.25,1],[0,1],[0,0.75],[0,0.5],[0,0.25]];outlineConnect=0;gradientColor=none;html=1;whiteSpace=wrap;fontSize=12;fontStyle=0;shape=mxgraph.aws4.group;grIcon=mxgraph.aws4.group_security_group;grStroke=0;strokeColor=#147EBA;fillColor=#E6F2F8;verticalAlign=top;align=left;spacingLeft=30;fontColor=#147EBA;dashed=0;" parent="8aeaqcqeNkye2ldPFs5D-28" vertex="1">
          <mxGeometry x="354.66666666666663" y="193" width="224" height="118" as="geometry"/>
        </mxCell>
        <mxCell id="8aeaqcqeNkye2ldPFs5D-21" value="&lt;font color=&quot;#7f00ff&quot;&gt;NAT Gateway&lt;/font&gt;" style="outlineConnect=0;fontColor=#232F3E;gradientColor=none;fillColor=#5A30B5;strokeColor=none;dashed=0;verticalLabelPosition=bottom;verticalAlign=top;align=center;html=1;fontSize=12;fontStyle=0;aspect=fixed;pointerEvents=1;shape=mxgraph.aws4.nat_gateway;" parent="8aeaqcqeNkye2ldPFs5D-28" vertex="1">
          <mxGeometry x="162.4" y="51.5" width="34.53333333333333" height="34.53333333333333" as="geometry"/>
        </mxCell>
        <mxCell id="8aeaqcqeNkye2ldPFs5D-25" value="&lt;font color=&quot;#7f00ff&quot;&gt;NAT Gateway&lt;/font&gt;" style="outlineConnect=0;fontColor=#232F3E;gradientColor=none;fillColor=#5A30B5;strokeColor=none;dashed=0;verticalLabelPosition=bottom;verticalAlign=top;align=center;html=1;fontSize=12;fontStyle=0;aspect=fixed;pointerEvents=1;shape=mxgraph.aws4.nat_gateway;" parent="8aeaqcqeNkye2ldPFs5D-28" vertex="1">
          <mxGeometry x="162.4" y="235" width="34.53333333333333" height="34.53333333333333" as="geometry"/>
        </mxCell>
        <mxCell id="8aeaqcqeNkye2ldPFs5D-26" value="&lt;font color=&quot;#7f00ff&quot;&gt;NAT Gateway&lt;/font&gt;" style="outlineConnect=0;fontColor=#232F3E;gradientColor=none;fillColor=#5A30B5;strokeColor=none;dashed=0;verticalLabelPosition=bottom;verticalAlign=top;align=center;html=1;fontSize=12;fontStyle=0;aspect=fixed;pointerEvents=1;shape=mxgraph.aws4.nat_gateway;" parent="8aeaqcqeNkye2ldPFs5D-28" vertex="1">
          <mxGeometry x="162.4" y="401.5" width="34.53333333333333" height="34.53333333333333" as="geometry"/>
        </mxCell>
        <mxCell id="8aeaqcqeNkye2ldPFs5D-22" value="&lt;font color=&quot;#6600cc&quot;&gt;router&lt;/font&gt;" style="outlineConnect=0;fontColor=#232F3E;gradientColor=none;fillColor=#5A30B5;strokeColor=none;dashed=0;verticalLabelPosition=bottom;verticalAlign=top;align=center;html=1;fontSize=12;fontStyle=0;aspect=fixed;pointerEvents=1;shape=mxgraph.aws4.customer_gateway;" parent="N2LqG0-nj7z7RjuAbN2V-2" vertex="1">
          <mxGeometry x="120" y="570" width="49" height="49" as="geometry"/>
        </mxCell>
        <mxCell id="N2LqG0-nj7z7RjuAbN2V-3" value="" style="group" parent="N2LqG0-nj7z7RjuAbN2V-2" vertex="1" connectable="0">
          <mxGeometry x="10" y="560" width="90" height="90" as="geometry"/>
        </mxCell>
        <mxCell id="8aeaqcqeNkye2ldPFs5D-32" value="" style="whiteSpace=wrap;html=1;aspect=fixed;labelBackgroundColor=none;labelBorderColor=none;strokeColor=none;" parent="N2LqG0-nj7z7RjuAbN2V-3" vertex="1">
          <mxGeometry width="90" height="90" as="geometry"/>
        </mxCell>
        <mxCell id="8aeaqcqeNkye2ldPFs5D-31" value="&lt;font color=&quot;#6600cc&quot;&gt;Internet Gateway&lt;/font&gt;" style="outlineConnect=0;fontColor=#232F3E;gradientColor=none;fillColor=#5A30B5;strokeColor=none;dashed=0;verticalLabelPosition=bottom;verticalAlign=top;align=center;html=1;fontSize=12;fontStyle=0;aspect=fixed;pointerEvents=1;shape=mxgraph.aws4.internet_gateway;labelBackgroundColor=none;" parent="N2LqG0-nj7z7RjuAbN2V-3" vertex="1">
          <mxGeometry x="19.21875" y="9.375" width="51.5625" height="51.5625" as="geometry"/>
        </mxCell>
        <mxCell id="N2LqG0-nj7z7RjuAbN2V-4" value="drupal view" parent="0"/>
        <mxCell id="N2LqG0-nj7z7RjuAbN2V-6" value="AZ 1a" style="fillColor=none;strokeColor=#147EBA;dashed=1;verticalAlign=top;fontStyle=0;fontColor=#147EBA;align=left;" parent="N2LqG0-nj7z7RjuAbN2V-4" vertex="1">
          <mxGeometry x="210" y="371" width="521" height="150" as="geometry"/>
        </mxCell>
        <mxCell id="N2LqG0-nj7z7RjuAbN2V-7" value="AZ 1b" style="fillColor=none;strokeColor=#147EBA;dashed=1;verticalAlign=top;fontStyle=0;fontColor=#147EBA;align=left;" parent="N2LqG0-nj7z7RjuAbN2V-4" vertex="1">
          <mxGeometry x="210" y="562" width="520" height="162" as="geometry"/>
        </mxCell>
        <mxCell id="N2LqG0-nj7z7RjuAbN2V-36" value="" style="group" parent="N2LqG0-nj7z7RjuAbN2V-4" vertex="1" connectable="0">
          <mxGeometry x="217.5" y="605" width="129" height="110" as="geometry"/>
        </mxCell>
        <mxCell id="N2LqG0-nj7z7RjuAbN2V-10" value="Public subnet 1b&lt;br&gt;&lt;br&gt;" style="points=[[0,0],[0.25,0],[0.5,0],[0.75,0],[1,0],[1,0.25],[1,0.5],[1,0.75],[1,1],[0.75,1],[0.5,1],[0.25,1],[0,1],[0,0.75],[0,0.5],[0,0.25]];outlineConnect=0;gradientColor=none;html=1;whiteSpace=wrap;fontSize=12;fontStyle=0;shape=mxgraph.aws4.group;grIcon=mxgraph.aws4.group_security_group;grStroke=0;strokeColor=#248814;fillColor=#E9F3E6;verticalAlign=top;align=left;spacingLeft=30;fontColor=#248814;dashed=0;" parent="N2LqG0-nj7z7RjuAbN2V-36" vertex="1">
          <mxGeometry width="129" height="110" as="geometry"/>
        </mxCell>
        <mxCell id="N2LqG0-nj7z7RjuAbN2V-28" value="cron / bastion" style="outlineConnect=0;fontColor=#FF8000;gradientColor=#F78E04;gradientDirection=north;fillColor=#D05C17;strokeColor=#ffffff;dashed=0;verticalLabelPosition=bottom;verticalAlign=top;align=center;html=1;fontSize=12;fontStyle=1;aspect=fixed;shape=mxgraph.aws4.resourceIcon;resIcon=mxgraph.aws4.ec2;labelBackgroundColor=none;" parent="N2LqG0-nj7z7RjuAbN2V-36" vertex="1">
          <mxGeometry x="42.5" y="34" width="44" height="44" as="geometry"/>
        </mxCell>
        <mxCell id="N2LqG0-nj7z7RjuAbN2V-12" value="Private subnet 1a" style="points=[[0,0],[0.25,0],[0.5,0],[0.75,0],[1,0],[1,0.25],[1,0.5],[1,0.75],[1,1],[0.75,1],[0.5,1],[0.25,1],[0,1],[0,0.75],[0,0.5],[0,0.25]];outlineConnect=0;gradientColor=none;html=1;whiteSpace=wrap;fontSize=12;fontStyle=0;shape=mxgraph.aws4.group;grIcon=mxgraph.aws4.group_security_group;grStroke=0;strokeColor=#147EBA;fillColor=#E6F2F8;verticalAlign=top;align=left;spacingLeft=30;fontColor=#147EBA;dashed=0;" parent="N2LqG0-nj7z7RjuAbN2V-4" vertex="1">
          <mxGeometry x="373" y="390" width="298" height="122" as="geometry"/>
        </mxCell>
        <mxCell id="N2LqG0-nj7z7RjuAbN2V-44" style="edgeStyle=orthogonalEdgeStyle;rounded=0;orthogonalLoop=1;jettySize=auto;html=1;fontColor=#FF8000;strokeColor=#82b366;strokeWidth=1;endArrow=none;endFill=0;fillColor=#d5e8d4;" parent="N2LqG0-nj7z7RjuAbN2V-4" source="N2LqG0-nj7z7RjuAbN2V-39" target="N2LqG0-nj7z7RjuAbN2V-19" edge="1">
          <mxGeometry relative="1" as="geometry">
            <Array as="points">
              <mxPoint x="760" y="530"/>
              <mxPoint x="420" y="530"/>
            </Array>
          </mxGeometry>
        </mxCell>
        <mxCell id="N2LqG0-nj7z7RjuAbN2V-8" value="AZ 1c" style="fillColor=none;strokeColor=#147EBA;dashed=1;verticalAlign=top;fontStyle=0;fontColor=#147EBA;align=left;" parent="N2LqG0-nj7z7RjuAbN2V-4" vertex="1">
          <mxGeometry x="210" y="760" width="520" height="150" as="geometry"/>
        </mxCell>
        <mxCell id="N2LqG0-nj7z7RjuAbN2V-32" value="Public subnet 1a&lt;br&gt;" style="points=[[0,0],[0.25,0],[0.5,0],[0.75,0],[1,0],[1,0.25],[1,0.5],[1,0.75],[1,1],[0.75,1],[0.5,1],[0.25,1],[0,1],[0,0.75],[0,0.5],[0,0.25]];outlineConnect=0;gradientColor=none;html=1;whiteSpace=wrap;fontSize=12;fontStyle=0;shape=mxgraph.aws4.group;grIcon=mxgraph.aws4.group_security_group;grStroke=0;strokeColor=#248814;fillColor=#E9F3E6;verticalAlign=top;align=left;spacingLeft=30;fontColor=#248814;dashed=0;" parent="N2LqG0-nj7z7RjuAbN2V-4" vertex="1">
          <mxGeometry x="220" y="401" width="129" height="110" as="geometry"/>
        </mxCell>
        <mxCell id="N2LqG0-nj7z7RjuAbN2V-33" value="Public subnet 1c" style="points=[[0,0],[0.25,0],[0.5,0],[0.75,0],[1,0],[1,0.25],[1,0.5],[1,0.75],[1,1],[0.75,1],[0.5,1],[0.25,1],[0,1],[0,0.75],[0,0.5],[0,0.25]];outlineConnect=0;gradientColor=none;html=1;whiteSpace=wrap;fontSize=12;fontStyle=0;shape=mxgraph.aws4.group;grIcon=mxgraph.aws4.group_security_group;grStroke=0;strokeColor=#248814;fillColor=#E9F3E6;verticalAlign=top;align=left;spacingLeft=30;fontColor=#248814;dashed=0;" parent="N2LqG0-nj7z7RjuAbN2V-4" vertex="1">
          <mxGeometry x="217.5" y="791.5" width="129" height="110" as="geometry"/>
        </mxCell>
        <mxCell id="N2LqG0-nj7z7RjuAbN2V-34" value="" style="group" parent="N2LqG0-nj7z7RjuAbN2V-4" vertex="1" connectable="0">
          <mxGeometry x="373" y="590" width="227" height="126" as="geometry"/>
        </mxCell>
        <mxCell id="N2LqG0-nj7z7RjuAbN2V-14" value="Private subnet 1b&lt;br&gt;" style="points=[[0,0],[0.25,0],[0.5,0],[0.75,0],[1,0],[1,0.25],[1,0.5],[1,0.75],[1,1],[0.75,1],[0.5,1],[0.25,1],[0,1],[0,0.75],[0,0.5],[0,0.25]];outlineConnect=0;gradientColor=none;html=1;whiteSpace=wrap;fontSize=12;fontStyle=0;shape=mxgraph.aws4.group;grIcon=mxgraph.aws4.group_security_group;grStroke=0;strokeColor=#147EBA;fillColor=#E6F2F8;verticalAlign=top;align=left;spacingLeft=30;fontColor=#147EBA;dashed=0;" parent="N2LqG0-nj7z7RjuAbN2V-34" vertex="1">
          <mxGeometry width="227" height="126" as="geometry"/>
        </mxCell>
        <mxCell id="N2LqG0-nj7z7RjuAbN2V-20" value="php&amp;nbsp; 02" style="outlineConnect=0;fontColor=#FF8000;gradientColor=#F78E04;gradientDirection=north;fillColor=#D05C17;strokeColor=#ffffff;dashed=0;verticalLabelPosition=bottom;verticalAlign=top;align=center;html=1;fontSize=12;fontStyle=1;aspect=fixed;shape=mxgraph.aws4.resourceIcon;resIcon=mxgraph.aws4.ec2;labelBackgroundColor=none;" parent="N2LqG0-nj7z7RjuAbN2V-34" vertex="1">
          <mxGeometry x="45.400000000000006" y="40.663636363636364" width="44" height="44" as="geometry"/>
        </mxCell>
        <mxCell id="N2LqG0-nj7z7RjuAbN2V-27" value="mongo 1b" style="outlineConnect=0;fontColor=#FF8000;gradientColor=#F78E04;gradientDirection=north;fillColor=#D05C17;strokeColor=#ffffff;dashed=0;verticalLabelPosition=bottom;verticalAlign=top;align=center;html=1;fontSize=12;fontStyle=1;aspect=fixed;shape=mxgraph.aws4.resourceIcon;resIcon=mxgraph.aws4.ec2;labelBackgroundColor=none;" parent="N2LqG0-nj7z7RjuAbN2V-34" vertex="1">
          <mxGeometry x="100.68666666666667" y="40.663636363636364" width="44" height="44" as="geometry"/>
        </mxCell>
        <mxCell id="N2LqG0-nj7z7RjuAbN2V-60" value="" style="outlineConnect=0;fontColor=#232F3E;gradientColor=none;fillColor=#007FFF;strokeColor=none;dashed=0;verticalLabelPosition=bottom;verticalAlign=top;align=center;html=1;fontSize=12;fontStyle=0;aspect=fixed;pointerEvents=1;shape=mxgraph.aws4.elasticache_for_redis;labelBackgroundColor=none;" parent="N2LqG0-nj7z7RjuAbN2V-34" vertex="1">
          <mxGeometry x="177" y="86" width="36" height="32" as="geometry"/>
        </mxCell>
        <mxCell id="N2LqG0-nj7z7RjuAbN2V-35" value="" style="group" parent="N2LqG0-nj7z7RjuAbN2V-4" vertex="1" connectable="0">
          <mxGeometry x="372.5" y="790.5" width="151" height="111" as="geometry"/>
        </mxCell>
        <mxCell id="N2LqG0-nj7z7RjuAbN2V-13" value="Private subnet 1c" style="points=[[0,0],[0.25,0],[0.5,0],[0.75,0],[1,0],[1,0.25],[1,0.5],[1,0.75],[1,1],[0.75,1],[0.5,1],[0.25,1],[0,1],[0,0.75],[0,0.5],[0,0.25]];outlineConnect=0;gradientColor=none;html=1;whiteSpace=wrap;fontSize=12;fontStyle=0;shape=mxgraph.aws4.group;grIcon=mxgraph.aws4.group_security_group;grStroke=0;strokeColor=#147EBA;fillColor=#E6F2F8;verticalAlign=top;align=left;spacingLeft=30;fontColor=#147EBA;dashed=0;" parent="N2LqG0-nj7z7RjuAbN2V-35" vertex="1">
          <mxGeometry width="151" height="111" as="geometry"/>
        </mxCell>
        <mxCell id="N2LqG0-nj7z7RjuAbN2V-18" value="php&amp;nbsp; 03" style="outlineConnect=0;fontColor=#FF8000;gradientColor=#F78E04;gradientDirection=north;fillColor=#D05C17;strokeColor=#ffffff;dashed=0;verticalLabelPosition=bottom;verticalAlign=top;align=center;html=1;fontSize=12;fontStyle=1;aspect=fixed;shape=mxgraph.aws4.resourceIcon;resIcon=mxgraph.aws4.ec2;labelBackgroundColor=none;" parent="N2LqG0-nj7z7RjuAbN2V-35" vertex="1">
          <mxGeometry x="25" y="33.5" width="44" height="44" as="geometry"/>
        </mxCell>
        <mxCell id="N2LqG0-nj7z7RjuAbN2V-26" value="mongo 1c" style="outlineConnect=0;fontColor=#FF8000;gradientColor=#F78E04;gradientDirection=north;fillColor=#D05C17;strokeColor=#ffffff;dashed=0;verticalLabelPosition=bottom;verticalAlign=top;align=center;html=1;fontSize=12;fontStyle=1;aspect=fixed;shape=mxgraph.aws4.resourceIcon;resIcon=mxgraph.aws4.ec2;labelBackgroundColor=none;" parent="N2LqG0-nj7z7RjuAbN2V-35" vertex="1">
          <mxGeometry x="79" y="33.5" width="44" height="44" as="geometry"/>
        </mxCell>
        <mxCell id="N2LqG0-nj7z7RjuAbN2V-37" value="&lt;font color=&quot;#6600cc&quot;&gt;&lt;b&gt;Writer&lt;/b&gt;&lt;/font&gt;" style="outlineConnect=0;fontColor=#232F3E;gradientColor=none;fillColor=#3334B9;strokeColor=none;dashed=0;verticalLabelPosition=bottom;verticalAlign=top;align=center;html=1;fontSize=12;fontStyle=0;aspect=fixed;pointerEvents=1;shape=mxgraph.aws4.aurora_instance;labelBackgroundColor=none;" parent="N2LqG0-nj7z7RjuAbN2V-4" vertex="1">
          <mxGeometry x="600" y="400" width="45" height="45" as="geometry"/>
        </mxCell>
        <mxCell id="N2LqG0-nj7z7RjuAbN2V-38" value="&lt;font color=&quot;#6600cc&quot;&gt;&lt;b&gt;Reader&lt;/b&gt;&lt;/font&gt;" style="outlineConnect=0;fontColor=#232F3E;gradientColor=none;fillColor=#3334B9;strokeColor=none;dashed=0;verticalLabelPosition=bottom;verticalAlign=top;align=center;html=1;fontSize=12;fontStyle=0;aspect=fixed;pointerEvents=1;shape=mxgraph.aws4.aurora_instance;labelBackgroundColor=none;" parent="N2LqG0-nj7z7RjuAbN2V-4" vertex="1">
          <mxGeometry x="548" y="608" width="42" height="42" as="geometry"/>
        </mxCell>
        <mxCell id="N2LqG0-nj7z7RjuAbN2V-45" style="edgeStyle=orthogonalEdgeStyle;rounded=0;orthogonalLoop=1;jettySize=auto;html=1;fontColor=#FF8000;fillColor=#d5e8d4;strokeColor=#82b366;endArrow=none;endFill=0;" parent="N2LqG0-nj7z7RjuAbN2V-4" source="N2LqG0-nj7z7RjuAbN2V-39" target="N2LqG0-nj7z7RjuAbN2V-20" edge="1">
          <mxGeometry relative="1" as="geometry">
            <Array as="points">
              <mxPoint x="430" y="740"/>
            </Array>
          </mxGeometry>
        </mxCell>
        <mxCell id="N2LqG0-nj7z7RjuAbN2V-46" style="edgeStyle=orthogonalEdgeStyle;rounded=0;orthogonalLoop=1;jettySize=auto;html=1;fontColor=#FF8000;fillColor=#d5e8d4;strokeColor=#82b366;endArrow=none;endFill=0;" parent="N2LqG0-nj7z7RjuAbN2V-4" source="N2LqG0-nj7z7RjuAbN2V-39" target="N2LqG0-nj7z7RjuAbN2V-18" edge="1">
          <mxGeometry relative="1" as="geometry">
            <Array as="points">
              <mxPoint x="760" y="950"/>
              <mxPoint x="420" y="950"/>
            </Array>
          </mxGeometry>
        </mxCell>
        <mxCell id="N2LqG0-nj7z7RjuAbN2V-39" value="&lt;font color=&quot;#006600&quot;&gt;&lt;b&gt;EFS&lt;/b&gt;&lt;/font&gt;" style="outlineConnect=0;fontColor=#232F3E;gradientColor=#60A337;gradientDirection=north;fillColor=#277116;strokeColor=#ffffff;dashed=0;verticalLabelPosition=bottom;verticalAlign=top;align=center;html=1;fontSize=12;fontStyle=0;aspect=fixed;shape=mxgraph.aws4.resourceIcon;resIcon=mxgraph.aws4.elastic_file_system;labelBackgroundColor=none;" parent="N2LqG0-nj7z7RjuAbN2V-4" vertex="1">
          <mxGeometry x="740" y="723" width="40" height="40" as="geometry"/>
        </mxCell>
        <mxCell id="N2LqG0-nj7z7RjuAbN2V-29" value="&lt;font color=&quot;#6600cc&quot;&gt;&lt;b&gt;elasticsearch&amp;nbsp;&lt;/b&gt;&lt;/font&gt;" style="outlineConnect=0;fontColor=#232F3E;gradientColor=#945DF2;gradientDirection=north;fillColor=#5A30B5;strokeColor=#ffffff;dashed=0;verticalLabelPosition=bottom;verticalAlign=top;align=center;html=1;fontSize=12;fontStyle=0;aspect=fixed;shape=mxgraph.aws4.resourceIcon;resIcon=mxgraph.aws4.elasticsearch_service;labelBackgroundColor=none;" parent="N2LqG0-nj7z7RjuAbN2V-4" vertex="1">
          <mxGeometry x="533" y="431.5" width="43" height="43" as="geometry"/>
        </mxCell>
        <mxCell id="N2LqG0-nj7z7RjuAbN2V-23" value="mongo 1a" style="outlineConnect=0;fontColor=#FF8000;gradientColor=#F78E04;gradientDirection=north;fillColor=#D05C17;strokeColor=#ffffff;dashed=0;verticalLabelPosition=bottom;verticalAlign=top;align=center;html=1;fontSize=12;fontStyle=1;aspect=fixed;shape=mxgraph.aws4.resourceIcon;resIcon=mxgraph.aws4.ec2;labelBackgroundColor=none;" parent="N2LqG0-nj7z7RjuAbN2V-4" vertex="1">
          <mxGeometry x="454.5" y="431" width="44" height="44" as="geometry"/>
        </mxCell>
        <mxCell id="N2LqG0-nj7z7RjuAbN2V-19" value="php&amp;nbsp; 01" style="outlineConnect=0;fontColor=#FF8000;gradientColor=#F78E04;gradientDirection=north;fillColor=#D05C17;strokeColor=#ffffff;dashed=0;verticalLabelPosition=bottom;verticalAlign=top;align=center;html=1;fontSize=12;fontStyle=1;aspect=fixed;shape=mxgraph.aws4.resourceIcon;resIcon=mxgraph.aws4.ec2;labelBackgroundColor=none;horizontal=1;" parent="N2LqG0-nj7z7RjuAbN2V-4" vertex="1">
          <mxGeometry x="394.5" y="430" width="44" height="44" as="geometry"/>
        </mxCell>
        <mxCell id="N2LqG0-nj7z7RjuAbN2V-52" style="edgeStyle=orthogonalEdgeStyle;rounded=0;orthogonalLoop=1;jettySize=auto;html=1;endArrow=open;endFill=0;strokeColor=#9673a6;strokeWidth=1;fontColor=#FF8000;fillColor=#e1d5e7;" parent="N2LqG0-nj7z7RjuAbN2V-4" source="N2LqG0-nj7z7RjuAbN2V-49" target="N2LqG0-nj7z7RjuAbN2V-33" edge="1">
          <mxGeometry relative="1" as="geometry">
            <Array as="points">
              <mxPoint x="128" y="847"/>
            </Array>
          </mxGeometry>
        </mxCell>
        <mxCell id="N2LqG0-nj7z7RjuAbN2V-49" value="&lt;font color=&quot;#6600cc&quot;&gt;&lt;b&gt;Classic LB&lt;/b&gt;&lt;/font&gt;" style="outlineConnect=0;fontColor=#232F3E;gradientColor=none;fillColor=#5A30B5;strokeColor=none;dashed=0;verticalLabelPosition=bottom;verticalAlign=top;align=center;html=1;fontSize=12;fontStyle=0;aspect=fixed;pointerEvents=1;shape=mxgraph.aws4.classic_load_balancer;labelBackgroundColor=none;" parent="N2LqG0-nj7z7RjuAbN2V-4" vertex="1">
          <mxGeometry x="110" y="645.5" width="35" height="35" as="geometry"/>
        </mxCell>
        <mxCell id="N2LqG0-nj7z7RjuAbN2V-50" value="" style="edgeStyle=orthogonalEdgeStyle;html=1;endArrow=open;elbow=vertical;startArrow=none;endFill=0;strokeColor=#9673a6;rounded=0;fontColor=#FF8000;fillColor=#e1d5e7;" parent="N2LqG0-nj7z7RjuAbN2V-4" source="N2LqG0-nj7z7RjuAbN2V-49" target="N2LqG0-nj7z7RjuAbN2V-32" edge="1">
          <mxGeometry width="100" relative="1" as="geometry">
            <mxPoint x="120" y="550" as="sourcePoint"/>
            <mxPoint x="220" y="550" as="targetPoint"/>
            <Array as="points">
              <mxPoint x="128" y="460"/>
            </Array>
          </mxGeometry>
        </mxCell>
        <mxCell id="N2LqG0-nj7z7RjuAbN2V-51" value="" style="edgeStyle=orthogonalEdgeStyle;rounded=0;orthogonalLoop=1;jettySize=auto;html=1;endArrow=open;endFill=0;strokeColor=#9673a6;strokeWidth=1;fontColor=#FF8000;fillColor=#e1d5e7;" parent="N2LqG0-nj7z7RjuAbN2V-4" source="N2LqG0-nj7z7RjuAbN2V-49" target="N2LqG0-nj7z7RjuAbN2V-10" edge="1">
          <mxGeometry relative="1" as="geometry">
            <Array as="points">
              <mxPoint x="160" y="661"/>
              <mxPoint x="160" y="661"/>
            </Array>
          </mxGeometry>
        </mxCell>
        <mxCell id="N2LqG0-nj7z7RjuAbN2V-55" value="" style="outlineConnect=0;fontColor=#232F3E;gradientColor=#60A337;gradientDirection=north;fillColor=#277116;strokeColor=#ffffff;dashed=0;verticalLabelPosition=bottom;verticalAlign=top;align=center;html=1;fontSize=12;fontStyle=0;aspect=fixed;shape=mxgraph.aws4.resourceIcon;resIcon=mxgraph.aws4.efs_standard;labelBackgroundColor=none;" parent="N2LqG0-nj7z7RjuAbN2V-4" vertex="1">
          <mxGeometry x="736" y="720" width="46" height="46" as="geometry"/>
        </mxCell>
        <mxCell id="N2LqG0-nj7z7RjuAbN2V-58" value="" style="outlineConnect=0;fontColor=#232F3E;gradientColor=none;fillColor=#007FFF;strokeColor=none;dashed=0;verticalLabelPosition=bottom;verticalAlign=top;align=center;html=1;fontSize=12;fontStyle=0;aspect=fixed;pointerEvents=1;shape=mxgraph.aws4.elasticache_for_redis;labelBackgroundColor=none;" parent="N2LqG0-nj7z7RjuAbN2V-4" vertex="1">
          <mxGeometry x="610" y="480" width="36" height="32" as="geometry"/>
        </mxCell>
        <mxCell id="N2LqG0-nj7z7RjuAbN2V-62" value="" style="outlineConnect=0;fontColor=#232F3E;gradientColor=none;fillColor=#FF8000;strokeColor=none;dashed=0;verticalLabelPosition=bottom;verticalAlign=top;align=center;html=1;fontSize=12;fontStyle=0;aspect=fixed;pointerEvents=1;shape=mxgraph.aws4.elasticache_for_redis;labelBackgroundColor=none;" parent="N2LqG0-nj7z7RjuAbN2V-4" vertex="1">
          <mxGeometry x="676.5" y="479" width="36" height="32" as="geometry"/>
        </mxCell>
        <mxCell id="N2LqG0-nj7z7RjuAbN2V-59" value="" style="outlineConnect=0;fontColor=#232F3E;gradientColor=none;fillColor=#FF0080;strokeColor=none;dashed=0;verticalLabelPosition=bottom;verticalAlign=top;align=center;html=1;fontSize=12;fontStyle=0;aspect=fixed;pointerEvents=1;shape=mxgraph.aws4.elasticache_for_memcached;labelBackgroundColor=none;" parent="N2LqG0-nj7z7RjuAbN2V-4" vertex="1">
          <mxGeometry x="677.5" y="384" width="33" height="29" as="geometry"/>
        </mxCell>
        <mxCell id="N2LqG0-nj7z7RjuAbN2V-61" value="" style="outlineConnect=0;fontColor=#232F3E;gradientColor=none;fillColor=#007FFF;strokeColor=none;dashed=0;verticalLabelPosition=bottom;verticalAlign=top;align=center;html=1;fontSize=12;fontStyle=0;aspect=fixed;pointerEvents=1;shape=mxgraph.aws4.elasticache_for_redis;labelBackgroundColor=none;" parent="N2LqG0-nj7z7RjuAbN2V-4" vertex="1">
          <mxGeometry x="531" y="869" width="36" height="32" as="geometry"/>
        </mxCell>
        <mxCell id="N2LqG0-nj7z7RjuAbN2V-64" value="" style="outlineConnect=0;fontColor=#232F3E;gradientColor=none;fillColor=#67AB9F;strokeColor=none;dashed=0;verticalLabelPosition=bottom;verticalAlign=top;align=center;html=1;fontSize=12;fontStyle=0;aspect=fixed;pointerEvents=1;shape=mxgraph.aws4.elasticache_for_memcached;labelBackgroundColor=none;" parent="N2LqG0-nj7z7RjuAbN2V-4" vertex="1">
          <mxGeometry x="678" y="433" width="33" height="29" as="geometry"/>
        </mxCell>
        <mxCell id="N2LqG0-nj7z7RjuAbN2V-53" value="&lt;font&gt;&lt;b&gt;Cloudfront QDM &lt;br&gt;@claranet&lt;/b&gt;&lt;/font&gt;" style="outlineConnect=0;fontColor=#0066CC;fillColor=#647687;strokeColor=#314354;dashed=0;verticalLabelPosition=bottom;verticalAlign=top;align=center;html=1;fontSize=12;fontStyle=0;aspect=fixed;pointerEvents=1;shape=mxgraph.aws4.download_distribution;labelBackgroundColor=none;" parent="N2LqG0-nj7z7RjuAbN2V-4" vertex="1">
          <mxGeometry x="321.5" y="40" width="50" height="50" as="geometry"/>
        </mxCell>
        <mxCell id="N2LqG0-nj7z7RjuAbN2V-54" value="&lt;font&gt;&lt;b&gt;Cloudfront QPH&lt;br&gt;@claranet&lt;br&gt;&lt;/b&gt;&lt;/font&gt;" style="outlineConnect=0;fontColor=#0066CC;fillColor=#647687;strokeColor=#314354;dashed=0;verticalLabelPosition=bottom;verticalAlign=top;align=center;html=1;fontSize=12;fontStyle=0;aspect=fixed;pointerEvents=1;shape=mxgraph.aws4.download_distribution;labelBackgroundColor=none;" parent="N2LqG0-nj7z7RjuAbN2V-4" vertex="1">
          <mxGeometry x="321.5" y="150" width="50" height="50" as="geometry"/>
        </mxCell>
        <mxCell id="N2LqG0-nj7z7RjuAbN2V-56" value="&lt;font color=&quot;#6600cc&quot;&gt;&lt;b&gt;Route 53 hosted zone&lt;/b&gt;&lt;/font&gt;" style="outlineConnect=0;fontColor=#232F3E;gradientColor=none;fillColor=#5A30B5;strokeColor=none;dashed=0;verticalLabelPosition=bottom;verticalAlign=top;align=center;html=1;fontSize=12;fontStyle=0;aspect=fixed;pointerEvents=1;shape=mxgraph.aws4.hosted_zone;labelBackgroundColor=none;" parent="N2LqG0-nj7z7RjuAbN2V-4" vertex="1">
          <mxGeometry x="661" y="90" width="41" height="40" as="geometry"/>
        </mxCell>
        <mxCell id="N2LqG0-nj7z7RjuAbN2V-67" style="edgeStyle=orthogonalEdgeStyle;rounded=0;orthogonalLoop=1;jettySize=auto;html=1;endArrow=open;endFill=0;strokeColor=#d79b00;strokeWidth=1;fontColor=#FF8000;fillColor=#ffe6cc;" parent="N2LqG0-nj7z7RjuAbN2V-4" source="N2LqG0-nj7z7RjuAbN2V-65" target="N2LqG0-nj7z7RjuAbN2V-53" edge="1">
          <mxGeometry relative="1" as="geometry">
            <Array as="points">
              <mxPoint x="210" y="70"/>
            </Array>
          </mxGeometry>
        </mxCell>
        <mxCell id="N2LqG0-nj7z7RjuAbN2V-68" style="edgeStyle=orthogonalEdgeStyle;rounded=0;orthogonalLoop=1;jettySize=auto;html=1;endArrow=open;endFill=0;strokeColor=#d79b00;strokeWidth=1;fontColor=#FF8000;fillColor=#ffe6cc;" parent="N2LqG0-nj7z7RjuAbN2V-4" source="N2LqG0-nj7z7RjuAbN2V-65" target="N2LqG0-nj7z7RjuAbN2V-54" edge="1">
          <mxGeometry relative="1" as="geometry">
            <Array as="points">
              <mxPoint x="210" y="175"/>
            </Array>
          </mxGeometry>
        </mxCell>
        <mxCell id="N2LqG0-nj7z7RjuAbN2V-65" value="" style="outlineConnect=0;fontColor=#232F3E;gradientColor=none;fillColor=#D05C17;strokeColor=none;dashed=0;verticalLabelPosition=bottom;verticalAlign=top;align=center;html=1;fontSize=12;fontStyle=0;aspect=fixed;pointerEvents=1;shape=mxgraph.aws4.lambda_function;labelBackgroundColor=none;" parent="N2LqG0-nj7z7RjuAbN2V-4" vertex="1">
          <mxGeometry x="190" y="101" width="39" height="39" as="geometry"/>
        </mxCell>
        <mxCell id="N2LqG0-nj7z7RjuAbN2V-69" style="edgeStyle=orthogonalEdgeStyle;rounded=0;orthogonalLoop=1;jettySize=auto;html=1;endArrow=open;endFill=0;strokeColor=#b85450;strokeWidth=1;fontColor=#FF8000;fillColor=#f8cecc;" parent="N2LqG0-nj7z7RjuAbN2V-4" source="N2LqG0-nj7z7RjuAbN2V-66" target="N2LqG0-nj7z7RjuAbN2V-65" edge="1">
          <mxGeometry relative="1" as="geometry"/>
        </mxCell>
        <mxCell id="N2LqG0-nj7z7RjuAbN2V-66" value="&lt;font color=&quot;#cc0000&quot;&gt;API Gateway&lt;/font&gt;" style="outlineConnect=0;fontColor=#232F3E;gradientColor=#F54749;gradientDirection=north;fillColor=#C7131F;strokeColor=#ffffff;dashed=0;verticalLabelPosition=bottom;verticalAlign=top;align=center;html=1;fontSize=12;fontStyle=0;aspect=fixed;shape=mxgraph.aws4.resourceIcon;resIcon=mxgraph.aws4.api_gateway;labelBackgroundColor=none;" parent="N2LqG0-nj7z7RjuAbN2V-4" vertex="1">
          <mxGeometry x="107.5" y="101" width="40" height="40" as="geometry"/>
        </mxCell>
        <mxCell id="N2LqG0-nj7z7RjuAbN2V-74" value="&lt;font color=&quot;#cc0000&quot;&gt;sts&lt;/font&gt;" style="outlineConnect=0;fontColor=#232F3E;gradientColor=none;fillColor=#C7131F;strokeColor=none;dashed=0;verticalLabelPosition=bottom;verticalAlign=top;align=center;html=1;fontSize=12;fontStyle=0;aspect=fixed;pointerEvents=1;shape=mxgraph.aws4.sts;labelBackgroundColor=none;" parent="N2LqG0-nj7z7RjuAbN2V-4" vertex="1">
          <mxGeometry x="243" y="110" width="41" height="26" as="geometry"/>
        </mxCell>
        <mxCell id="N2LqG0-nj7z7RjuAbN2V-75" value="+" style="text;html=1;resizable=0;autosize=1;align=center;verticalAlign=middle;points=[];fillColor=none;strokeColor=none;rounded=0;labelBackgroundColor=none;fontColor=#990000;fontStyle=1" parent="N2LqG0-nj7z7RjuAbN2V-4" vertex="1">
          <mxGeometry x="225" y="113" width="20" height="20" as="geometry"/>
        </mxCell>
        <mxCell id="0vmh4POg4geOitYVOq-g-11" value="in memory store legend " parent="0"/>
        <mxCell id="0vmh4POg4geOitYVOq-g-15" value="" style="group" parent="0vmh4POg4geOitYVOq-g-11" vertex="1" connectable="0">
          <mxGeometry x="176" y="1085.5" width="230" height="20" as="geometry"/>
        </mxCell>
        <mxCell id="0vmh4POg4geOitYVOq-g-2" value="&lt;font color=&quot;#007fff&quot;&gt;node redis prod2 pour site abonnement&lt;/font&gt;" style="text;html=1;strokeColor=none;fillColor=none;align=left;verticalAlign=middle;whiteSpace=wrap;rounded=0;" parent="0vmh4POg4geOitYVOq-g-15" vertex="1">
          <mxGeometry width="230" height="20" as="geometry"/>
        </mxCell>
        <mxCell id="0vmh4POg4geOitYVOq-g-7" value="" style="outlineConnect=0;fontColor=#232F3E;gradientColor=none;fillColor=#FF0080;strokeColor=none;dashed=0;verticalLabelPosition=bottom;verticalAlign=top;align=center;html=1;fontSize=12;fontStyle=0;aspect=fixed;pointerEvents=1;shape=mxgraph.aws4.elasticache_for_memcached;labelBackgroundColor=none;" parent="0vmh4POg4geOitYVOq-g-11" vertex="1">
          <mxGeometry x="454" y="1044" width="34" height="30" as="geometry"/>
        </mxCell>
        <mxCell id="0vmh4POg4geOitYVOq-g-9" value="" style="outlineConnect=0;fontColor=#232F3E;gradientColor=none;fillColor=#FF8000;strokeColor=none;dashed=0;verticalLabelPosition=bottom;verticalAlign=top;align=center;html=1;fontSize=12;fontStyle=0;aspect=fixed;pointerEvents=1;shape=mxgraph.aws4.elasticache_for_redis;labelBackgroundColor=none;" parent="0vmh4POg4geOitYVOq-g-11" vertex="1">
          <mxGeometry x="452" y="1084" width="34" height="30" as="geometry"/>
        </mxCell>
        <mxCell id="0vmh4POg4geOitYVOq-g-10" value="&lt;font color=&quot;#ff8000&quot;&gt;node redis prod pour api commentaires&lt;/font&gt;" style="text;html=1;strokeColor=none;fillColor=none;align=left;verticalAlign=middle;whiteSpace=wrap;rounded=0;" parent="0vmh4POg4geOitYVOq-g-11" vertex="1">
          <mxGeometry x="494" y="1086" width="217" height="20" as="geometry"/>
        </mxCell>
        <mxCell id="0vmh4POg4geOitYVOq-g-13" value="" style="group" parent="0vmh4POg4geOitYVOq-g-11" vertex="1" connectable="0">
          <mxGeometry x="494" y="1047" width="237" height="20" as="geometry"/>
        </mxCell>
        <mxCell id="0vmh4POg4geOitYVOq-g-8" value="&lt;font color=&quot;#ff0080&quot;&gt;node memached userapi pour user ref&lt;/font&gt;" style="text;html=1;strokeColor=none;fillColor=none;align=left;verticalAlign=middle;whiteSpace=wrap;rounded=0;" parent="0vmh4POg4geOitYVOq-g-13" vertex="1">
          <mxGeometry width="237" height="20" as="geometry"/>
        </mxCell>
        <mxCell id="0vmh4POg4geOitYVOq-g-12" value="" style="group" parent="0vmh4POg4geOitYVOq-g-11" vertex="1" connectable="0">
          <mxGeometry x="131" y="1043" width="312" height="29" as="geometry"/>
        </mxCell>
        <mxCell id="N2LqG0-nj7z7RjuAbN2V-70" value="" style="outlineConnect=0;fontColor=#232F3E;gradientColor=none;fillColor=#67AB9F;strokeColor=none;dashed=0;verticalLabelPosition=bottom;verticalAlign=top;align=center;html=1;fontSize=12;fontStyle=0;aspect=fixed;pointerEvents=1;shape=mxgraph.aws4.elasticache_for_memcached;labelBackgroundColor=none;" parent="0vmh4POg4geOitYVOq-g-12" vertex="1">
          <mxGeometry width="33" height="29" as="geometry"/>
        </mxCell>
        <mxCell id="N2LqG0-nj7z7RjuAbN2V-71" value="node memcached wpf-prod pour socle drupal 8" style="text;html=1;align=left;verticalAlign=middle;whiteSpace=wrap;rounded=0;labelBackgroundColor=none;fontColor=#009900;" parent="0vmh4POg4geOitYVOq-g-12" vertex="1">
          <mxGeometry x="44" y="4.5" width="268" height="20" as="geometry"/>
        </mxCell>
        <mxCell id="0vmh4POg4geOitYVOq-g-1" value="" style="outlineConnect=0;fontColor=#232F3E;gradientColor=none;fillColor=#007FFF;strokeColor=none;dashed=0;verticalLabelPosition=bottom;verticalAlign=top;align=center;html=1;fontSize=12;fontStyle=0;aspect=fixed;pointerEvents=1;shape=mxgraph.aws4.elasticache_for_redis;labelBackgroundColor=none;" parent="0vmh4POg4geOitYVOq-g-11" vertex="1">
          <mxGeometry x="131" y="1084.5" width="34" height="30" as="geometry"/>
        </mxCell>
      </root>
    </mxGraphModel>
  </diagram>
</mxfile>
